# xmcd CD database file
#
# Track frame offsets:
#	150
#	22092
#	45366
#	78590
#	111522
#	148963
#	184731
#	204903
#	241452
#	274017
#	305957
#
# Disc length: 4445 seconds
#
# Revision: 0
# Processed by: cddbd v1.5.1PL2 Copyright (c) Steve Scherf et al.
# Submitted via: CDex 1.51
#
DISCID=a3115b0b
DTITLE=Melillo - D'Andrea - Timeless Monk
DYEAR=2001
DGENRE=Jazz
TTITLE0=Work
TTITLE1=Let's Call This
TTITLE2=Monk's Mood
TTITLE3=Friday the 13th
TTITLE4=Evidence
TTITLE5=Misterioso
TTITLE6=Locomotive
TTITLE7=Pannonica
TTITLE8=Ba-Lue Bolivar Ba-Lues Are
TTITLE9=Timeless Monk
TTITLE10=Monk's Mood (Take 2)
EXTD=YEAR: 2001
EXTT0=
EXTT1=
EXTT2=
EXTT3=
EXTT4=
EXTT5=
EXTT6=
EXTT7=
EXTT8=
EXTT9=
EXTT10=
PLAYORDER=
